<svg width="564" height="638" viewBox="0 0 564 638" fill="none" xmlns="http://www.w3.org/2000/svg">
<g clip-path="url(#clip0_122_2)">
<path d="M424.199 45.4871C426.964 44.6052 430.275 44.2778 433.069 43.2727C433.221 46.5537 431.16 49.3614 429.746 52.1432C424.669 62.1354 418.827 71.8489 414.214 82.1037C387.954 140.462 368.599 210.071 382.043 274.067C384.984 274.336 383.839 274.116 384.238 272.404C396.535 219.599 414.437 183.722 461.923 154.225C464.439 152.662 468.692 149.829 470.799 148.678C475.374 146.178 482.493 143.114 487.444 140.91C490.546 139.528 494.437 137.596 497.429 136.471C499.734 135.605 513.117 131.18 514.067 132.039L501.867 154.225C496.531 162.901 491.691 173.373 488.553 183.074C472.887 231.517 482.059 266.471 484.105 314.571C485.346 343.793 478.982 370.939 469.697 398.329C490.29 398.669 502.924 383.382 507.56 364.636C513.036 342.486 510.417 324.56 505.962 302.702C504.117 293.647 499.981 284.141 500.198 275.176C556.55 328.23 575.824 399.869 557.02 475.128C536.177 558.568 466.228 611.081 386.475 633.568C380.685 633.636 374.081 636.454 368.207 636.937C351.919 638.272 334.999 636.207 318.792 635.789V634.68C325.824 634.216 332.885 633.325 339.875 632.462C377.213 627.839 403.937 617.99 433.585 594.688C478.357 559.501 513.701 504.803 511.843 446.05C480.068 479.158 433.445 494.86 388.696 500.42C393.818 486.061 401.317 471.076 404.228 456.035C406.4 456.061 407.315 454.541 408.683 453.283C432.884 431.016 451.98 393.089 454.204 360.101C456.791 321.691 442.448 288.381 437.673 251.155C436.061 238.595 435.514 225.659 435.283 213.034C432.327 215.297 430.732 220.588 429.227 224.164C415.792 256.125 412.123 291.309 400.899 323.993C393.88 344.428 384.313 363.142 371.406 380.487L365.409 386.125C344.566 325.218 318.384 261.614 337.103 196.389C341.039 182.671 347.769 165.358 353.19 152.004C356.96 142.709 362.679 133.689 366.222 123.428C366.472 122.702 370.797 112.713 367.075 114.288C277.47 183.19 191.019 272.813 173.44 389.452C172.497 390.453 167.229 385.905 166.204 385.049C155.075 375.708 144.661 361.9 134.929 350.935C134.271 350.193 134.994 348.798 132.397 349.521C132.338 397.537 147.53 444.039 175.664 482.656C126.529 471.841 85.6829 441.352 58.6998 399.356C52.0246 388.965 47.3431 377.229 40.3112 367.272C42.7265 424.826 62.0942 484.456 92.4263 533.179C117.688 573.764 164.567 628.802 214.5 632.462C215.962 632.569 217.48 632.326 218.939 632.462C219.688 632.534 222.213 633.364 224.486 633.571C227.54 633.85 230.542 634.499 233.362 634.68C232.211 636.535 230.357 636.768 228.392 636.924C219.289 637.647 202.943 637.767 193.927 636.946C187.021 636.317 181.941 633.844 174.556 633.571C175.155 630.708 173.168 631.302 171.521 630.559C166.295 628.202 160.959 626.73 155.694 624.694C153.823 623.971 152.183 622.389 149.038 621.365L147.929 620.256C147.582 620.194 147.18 620.266 146.82 620.256C138.103 613.11 127.138 608.879 117.973 602.502C90.8053 583.6 59.0208 549.548 41.4135 521.5C39.8541 519.014 37.6269 514.556 35.8665 511.515C34.4238 509.021 32.7639 506.256 31.4282 503.747C29.7456 500.585 27.4113 495.901 25.8811 492.652C25.1387 491.076 24.4676 488.93 23.6636 487.105L22.5548 485.996C22.4187 485.685 22.6878 485.198 22.5548 484.887C17.4876 472.975 13.8274 460.37 9.23997 448.27C9.23997 447.904 9.26266 447.528 9.23997 447.162L8.13121 446.053C8.0534 445.333 8.23495 444.539 8.13121 443.835C7.47957 439.448 7.14888 434.42 4.80168 430.52C4.70766 429.8 4.89894 429.019 4.80168 428.302L3.69292 426.084C2.58416 417.454 0.901561 407.377 0.376358 398.889C-4.04572 327.446 32.2776 253.35 80.8135 203.061C82.1459 203.784 81.0663 206.316 80.8556 207.542C74.2744 245.715 59.1764 276.693 63.6277 317.885C66.6492 345.864 80.5898 374.985 101.326 393.906C100.93 386.265 97.6103 377.974 96.897 370.605C94.4882 345.673 100.771 319.282 109.08 295.686C118.774 268.16 128.412 255.328 124.499 223.72C122.768 209.727 118.359 194.048 113.541 180.862C113.246 177.118 112.005 171.512 111.324 167.547C110.526 162.911 108.973 159.419 107.994 155.34C107.839 154.689 108.156 153.765 107.994 153.123C106.448 146.976 104.347 141.347 102.447 135.369C102.023 134.03 98.6509 126.343 101.873 127.614C104.153 128.512 115.477 138.034 117.996 140.345C132.919 154.037 143.601 171.327 149.048 190.848L150.156 191.957C150.319 192.596 150.004 193.516 150.156 194.175C151.414 199.664 153.084 208.706 153.486 214.146C155.622 243.183 145.29 264.649 139.607 291.808C135.12 313.248 130.296 328.182 152.932 340.619C154.728 340.628 156.76 321.364 157.344 318.426C181.853 194.933 283.526 99.3227 397.582 55.4761C405.201 52.5484 413.157 49.0988 420.882 46.5991C421.479 46.4046 422.51 46.7937 423.1 46.5991L424.209 45.4903L424.199 45.4871Z" fill="#D02027"/>
<path d="M167.896 175.309C170.013 138.073 187.679 116.354 199.463 83.1574C204.842 68.0134 208.337 52.4058 211.18 36.6101C213.346 36.9992 212.989 38.9542 213.433 40.4423C222.083 69.3621 221.331 110.044 213.07 138.929C205.078 166.856 186.495 189.587 175.343 215.521C173.683 219.385 173.287 224.401 173.44 228.574C168.622 229.994 169.284 223.603 169.005 219.69C168.856 217.592 169.848 214.273 167.896 213.034C167.718 210.181 167.948 207.804 167.896 205.266C167.692 195.167 167.319 185.447 167.896 175.305V175.309Z" fill="#F7B42F"/>
<path d="M394.237 0C394.626 1.91934 393.757 2.25004 392.337 3.08327C388.942 5.0707 381.697 6.57829 377.612 8.33228C356.591 17.3551 335.595 29.1857 321.661 47.802C318.124 52.5258 312.253 65.0502 309.387 67.7055C306.521 70.3608 298.711 72.8572 294.746 75.2564C274.523 87.4922 263.049 100.86 246.894 117.278C245.808 118.383 245.812 120.419 243.348 119.823C248.742 41.227 321.966 0.308003 394.237 0Z" fill="#F18629"/>
<path d="M555.127 204.16C556.164 211.893 556.515 219.648 556.236 227.462C555.231 255.746 552.011 276.476 557.672 305.36C559.251 313.41 566.824 329.323 554.041 314.539C535.082 292.612 511.937 244.434 518.512 215.255L519.621 214.146C519.799 213.52 519.433 212.522 519.621 211.928C520.003 210.706 523.317 203.327 524.059 201.943C524.769 200.617 525.865 199.427 526.276 198.613C526.4 198.373 527.774 197.874 528.325 196.823C534.281 185.495 537.63 175.088 536.262 161.996C537.692 160.502 537.452 160.281 539.014 162.019C540.849 164.058 546.182 174.783 547.55 177.893C551.253 186.303 553.898 195.021 555.124 204.16H555.127Z" fill="#F7B42F"/>
<path d="M96.8833 370.599C94.6593 369.846 94.4194 368.511 93.6186 366.653C78.1381 330.766 76.7473 287.324 94.2767 252.037C105.348 229.751 112.409 224.868 113.528 197.501C113.687 193.588 113.722 189.198 113.528 185.294C113.453 183.826 113.641 182.318 113.528 180.856C118.345 194.042 122.754 209.721 124.486 223.714C128.399 255.321 118.764 268.15 109.067 295.679C100.757 319.272 94.4745 345.667 96.8833 370.599Z" fill="#F7B42F"/>
<path d="M454.158 96.528C459.682 89.7196 475.302 79.0432 483.371 75.2564C497.471 68.636 512.17 66.6972 527.378 64.3499C527.42 66.1395 527.767 67.9292 526.308 69.3719C524.739 70.9217 507.93 76.4138 503.07 79.4193C494.07 84.9893 485.975 94.4855 481.903 104.283L498.538 107.639C497.633 110.333 494.08 110.177 491.882 110.956C488.024 112.32 484.364 113.906 480.788 115.394C469.269 120.189 463.083 123.214 453.049 130.927C449.019 134.023 447.966 134.665 444.173 138.695C441.164 141.889 438.538 145.695 435.306 148.681C435.75 139.606 437.692 128.382 440.843 119.832C442.97 114.061 450.284 101.307 454.158 96.5313V96.528Z" fill="#F18629"/>
<path d="M63.5986 137.583C64.5647 141.338 64.5906 144.846 64.7074 148.678C64.9797 157.73 65.56 170.329 64.5906 179.076C61.9776 202.646 36.3237 223.295 20.8659 239.649C19.2157 241.393 12.6896 251.953 10.3456 249.648C9.10067 248.422 13.017 235.207 13.9345 232.717C19.5204 217.55 30.4168 206.534 35.3381 189.765C36.6998 185.132 36.3269 179.815 38.3629 175.036C41.2159 168.338 52.2322 154.909 56.9395 146.457L58.0483 145.348C58.2979 144.894 57.7954 143.562 58.0483 143.13C58.8912 141.684 61.0925 137.998 62.4866 137.583C62.7557 137.502 63.3036 137.547 63.5953 137.583H63.5986Z" fill="#F18629"/>
<path d="M161.231 42.1641C164.275 45.3024 149.965 53.1484 147.91 54.9056C140.463 61.2602 133.117 72.3483 128.484 80.9724C125.345 86.8115 123.125 95.0303 119.925 100.153C117.101 104.676 116.07 100.6 115.739 97.0923C113.467 72.9805 138.566 47.0953 161.231 42.1641Z" fill="#F18629"/>
<path d="M353.189 152.007C347.769 165.362 341.038 182.678 337.102 196.392C318.383 261.617 344.565 325.218 365.408 386.128L371.406 380.49C384.312 363.142 393.879 344.428 400.898 323.996C404.403 323.361 402.779 325.727 403.139 327.806C409.905 367.11 411.814 416.847 404.228 456.038C401.317 471.079 393.815 486.064 388.695 500.423L377.601 510.409C377.028 503.776 374.447 492.584 372.839 485.766C365.253 453.574 348.258 426.817 324.89 403.892L323.227 427.183C322.212 427.329 321.816 427.307 320.99 426.658C319.742 425.682 309.011 401.609 307.506 397.978C303.314 387.863 298.438 375.497 295.495 365.051C294.486 361.469 294.733 356.174 292.165 352.845C292.266 348.143 291.41 342.259 291.056 337.311C290.739 332.873 290.171 328.538 289.948 323.996C289.912 323.26 289.974 322.514 289.948 321.778C289.857 319.272 288.839 318.624 288.839 318.449C288.816 316.604 288.803 314.743 288.839 312.901C288.839 312.824 289.892 312.555 289.948 311.793C290.003 311.031 289.889 310.304 289.948 309.575C290.155 307.02 289.802 304.375 289.948 301.807C290.758 296.739 292.006 291.4 290.508 286.277C282.365 293.543 277.155 303.088 271.086 311.793C269.212 314.48 267.636 316.247 265.539 319.561C265.013 320.391 264.78 321.208 264.43 321.778C261.295 326.885 258.549 330.331 255.553 336.203C239.395 367.888 232.175 401.438 233.355 437.169C231.17 437.737 231.209 436.268 230.237 435.305C220.549 425.747 213.064 413.774 203.711 403.879C199.593 400.945 200.031 407.656 199.344 410.428C199.042 411.65 197.878 412.626 197.856 412.762C196.034 411.018 196.815 409.089 197.045 407.014C206.826 319.642 266.738 230.486 329.169 171.259C336.159 164.629 344.786 156.154 353.192 152.007H353.189Z" fill="#F7B42F"/>
<path d="M214.497 632.459C164.564 628.799 117.684 573.757 92.4227 533.175C62.0938 484.449 42.7261 424.82 40.3076 367.269C47.3427 377.225 52.0209 388.962 58.6962 399.353C85.6793 441.348 126.525 471.837 175.661 482.653C147.527 444.039 132.338 397.537 132.393 349.518C134.99 348.795 134.267 350.192 134.925 350.932C144.658 361.897 155.071 375.705 166.201 385.045C167.222 385.905 172.493 390.453 173.437 389.448C191.015 272.809 277.469 183.187 367.071 114.285C370.793 112.713 366.472 122.698 366.219 123.425C362.675 133.686 356.96 142.706 353.186 152.001C344.779 156.148 336.156 164.619 329.163 171.253C266.732 230.48 206.82 319.635 197.039 407.008C196.805 409.083 196.027 411.012 197.849 412.756C195.217 429.301 196.996 450.926 200.417 467.334C204.236 485.662 212.373 502.404 220.031 519.276C214.951 516.008 209.488 513.359 204.605 509.751C200.955 507.053 190.123 495.622 188.402 494.879C186.379 494.004 185.873 497.774 185.75 498.844C185.095 504.525 184.576 511.349 184.537 517.059C160.18 513.152 135.317 504.123 112.776 493.952C109.119 492.302 100.015 486.346 97.4478 485.97C95.9143 485.746 95.3178 485.98 95.8008 487.617C97.143 492.153 101.491 500.452 103.698 505.248C121.393 543.732 152.108 592.837 186.855 617.377C195.716 623.634 205.085 627.307 214.497 632.453V632.459Z" fill="#F18629"/>
<path d="M339.874 632.459C343.7 629.331 349.565 629.036 353.958 627.126C384.721 613.765 412.135 579.81 427.022 550.401C428.034 548.401 440.499 521.394 436.943 521.484L377.598 532.595C378.016 526.234 378.143 516.683 377.598 510.403L388.692 500.417C433.442 494.857 480.065 479.155 511.839 446.046C513.697 504.8 478.353 559.498 433.581 594.685C403.933 617.983 377.209 627.836 339.871 632.459H339.874Z" fill="#F18629"/>
<path d="M404.228 456.035C411.814 416.844 409.905 367.107 403.139 327.802C402.782 325.724 404.403 323.357 400.898 323.993C412.122 291.312 415.792 256.125 429.227 224.164C430.731 220.588 432.326 215.297 435.283 213.034C435.51 225.662 436.061 238.598 437.672 251.155C442.448 288.378 456.79 321.691 454.203 360.101C451.983 393.086 432.884 431.016 408.682 453.283C407.314 454.541 406.4 456.061 404.228 456.035Z" fill="#F18629"/>
<path d="M184.538 517.062C184.301 551.896 200.148 596.475 225.565 620.836C230.37 625.443 238.543 629.045 241.127 634.68L240.018 635.789C238.079 635.669 235.855 634.839 233.362 634.68C230.545 634.499 227.54 633.85 224.486 633.571C223.539 631.772 220.715 632.527 218.939 632.463C217.48 632.326 215.962 632.57 214.5 632.463C205.089 627.317 195.719 623.641 186.859 617.387C152.111 592.85 121.397 543.745 103.702 505.258C101.497 500.459 97.1466 492.163 95.8044 487.627C95.3213 485.99 95.9178 485.753 97.4513 485.98C100.019 486.356 109.122 492.312 112.779 493.962C135.321 504.129 160.184 513.162 184.541 517.069L184.538 517.062Z" fill="#F7B42F"/>
<path d="M377.598 532.598L436.943 521.488C440.499 521.394 428.034 548.401 427.022 550.404C412.135 579.817 384.721 613.768 353.957 627.129C349.561 629.039 343.7 629.334 339.874 632.463C332.888 633.328 325.827 634.22 318.791 634.68C318.753 634.041 318.529 633.215 318.976 632.677C319.589 631.941 331.97 624.847 334.849 622.441C359.05 602.213 375.546 563.781 377.598 532.598Z" fill="#F7B42F"/>
<path d="M224.483 633.572C222.207 633.364 219.684 632.531 218.936 632.463C220.712 632.528 223.536 631.772 224.483 633.572Z" fill="#F18629"/>
<path d="M279.959 362.83C290.126 404.903 315.417 440.045 323.246 482.656L328.463 470.696L334.875 438.284C357.65 469.386 367.723 513.842 359.498 551.665C352.311 584.709 328.32 621.997 294.383 631.347C298.244 628.115 306.498 619.28 309.886 615.227C321.295 601.581 328.456 583.678 329.883 565.885C327.937 565.49 327.143 566.887 325.989 568.083C321.583 572.648 317.42 579.693 313.041 583.983C312.071 584.933 312.117 586.424 309.925 585.85C309.996 569.396 307.717 553.312 297.524 539.997C295.547 537.416 287.779 527.498 285.652 532.183L271.07 561.44C267.465 564.128 262.829 548.663 262.196 548.128C258.951 545.388 256.267 554.855 255.832 556.729C253.07 568.68 253.005 582.605 254.432 594.73C250.95 594.896 237.33 577.223 235.586 579.201C235.395 591.838 239.331 604.071 246.22 614.605C248.93 618.751 252.71 621.403 254.441 625.8C252.383 624.477 249.089 623.514 246.745 621.841C218.118 601.425 202.317 559.083 201.188 524.83L225.306 536.764C229.712 538.175 234.198 539.676 238.909 539.251V523.164C238.909 521.977 229.18 505.727 227.62 502.274C218.407 481.868 212.386 458.558 212.286 436.067L252.211 470.459C245.325 434.057 246.028 398.549 259.159 363.664C260.841 359.199 270.995 335.943 274.412 335.087C275.249 344.61 277.755 353.707 279.959 362.827V362.83Z" fill="#D02027"/>
<path d="M241.123 635.789C240.754 635.77 240.381 635.812 240.015 635.789L241.123 634.68V635.789Z" fill="#D02027"/>
<path d="M316.575 635.789H315.466C315.803 635.799 316.179 635.779 316.575 635.789Z" fill="#D02027"/>
<path d="M239.376 635.724C237.589 635.494 235.582 634.823 233.358 634.68C233.099 635.098 232.801 635.426 232.477 635.695C234.756 635.705 237.057 635.714 239.376 635.724Z" fill="#FACB18"/>
<path d="M254.438 625.803C259.252 628.893 264.819 631.791 268.862 635.779C281.761 639.388 275.109 637.517 281.998 637.517C285.266 637.517 284.53 635.776 287.74 635.747C288.93 632.968 292.168 633.202 294.383 631.35C298.244 628.118 306.498 619.283 309.886 615.231C321.294 601.584 328.456 583.681 329.882 565.889C327.937 565.493 327.143 566.89 325.989 568.087C321.583 572.652 317.42 579.697 313.04 583.986C312.071 584.936 312.116 586.427 309.925 585.854C309.996 569.4 307.717 553.316 297.524 540C295.546 537.419 287.779 527.502 285.652 532.187L271.069 561.444C267.464 564.131 262.828 548.666 262.196 548.131C258.951 545.392 256.266 554.859 255.832 556.733C253.07 568.683 253.005 582.608 254.431 594.734C250.95 594.899 237.33 577.226 235.586 579.204C235.394 591.842 239.33 604.074 246.22 614.608C248.93 618.755 252.71 621.407 254.441 625.803H254.438Z" fill="#FACB18"/>
</g>
<defs>
<clipPath id="clip0_122_2">
<rect width="564" height="638" fill="white"/>
</clipPath>
</defs>
</svg>
