<?xml version="1.0" encoding="utf-8"?>
<!-- Generator: Adobe Illustrator 25.4.1, SVG Export Plug-In . SVG Version: 6.00 Build 0)  -->
<svg version="1.1" id="Layer_1" xmlns="http://www.w3.org/2000/svg" xmlns:xlink="http://www.w3.org/1999/xlink" x="0px" y="0px"
	 viewBox="0 0 1026.1 275.9" style="enable-background:new 0 0 1026.1 275.9;" xml:space="preserve">
<style type="text/css">
	.st0{fill:#FF8000;}
</style>
<path id="House_00000071519272909981247790000001515294010782358403_" class="st0" d="M263.2,128.9c-8.7-14.6-18.3-28.6-28.9-42
	l-0.2-0.3l-0.1-0.1c-0.5-0.7-1.9-2.4-2.4-3.1c-4.8-6.5-4.1-11.3-4.1-11.3c-2.9-32.7-6.3-47.7-6.9-51.5c-0.7-4.5-2.1-9.3-8.7-10
	c-5.4-0.6-13.3-1.5-22-1.9c-7.3-0.4-8.2,7.2-8.2,7.2c-0.2,7.6,0,11.3,0,12.2c0,0.9-0.2,1.9-1.6,2.2c-0.6,0-1.2-0.2-1.6-0.5
	c-12-10-24.7-19.1-38-27.4c-2.6-1.6-5.6-2.4-8.7-2.5c-2.7,0.1-5.3,1-7.5,2.5c-4,2.5-71.5,40.8-122.6,126.2c0,0-3.2,4.5-0.8,8.7
	c1.3,2.6,4,4.1,6.8,4c0,0,17.7,2.1,21.3,2.5c4,0.4,4,3.7,4,3.7c-0.3,37.3,2,74.5,6.8,111.4c0,0,0.9,6.2,7,6.5
	c2.5,0.2,11.7-0.4,36.2-1c0.9,0.1,1.7-0.6,1.9-1.5c0-0.2,0-0.2,0-0.4c-2.3-24.2-3.1-45.2-3.1-46.4c-0.1-0.9-0.6-1.6-1.4-2
	c-9.1-5.2-14.7-14.8-14.8-25.1c-0.7-48,2.2-84.8,2.2-84.8s0.2-5.1,4.8-4.7c4.5,0.4,4.2,5.4,4.2,5.4c-1.6,20.7-2.2,57.9-2.2,57.9
	s0,7.1,6.8,7.1s6.8-7.1,6.8-7.1c-0.2-29.2,2.2-58.5,2.2-58.5s0-4.9,4.8-4.9c4.4,0,4.2,5.5,4.2,5.5c-2.1,25.3-2.2,57.8-2.2,57.8
	s0,7.1,6.8,7.1s6.8-7.7,6.8-7.7c-0.1-24.2,2.3-58,2.3-58c-0.1-2.5,1.8-4.5,4.3-4.7c0.2,0,0.2,0,0.4,0c4,0,4.3,4.7,4.3,4.7
	c-2.2,26.2-2.2,66.5-2.1,83.9c0.3,10.4-4.9,20.1-13.8,25.6c-0.8,0.6-1.2,1.5-1.2,2.5c0.6,15.9,1.9,33.6,3.1,46.3
	c0.1,0.8,0.7,1.6,1.6,1.6c6.8,0,14.2-0.1,22.3-0.1c13.1,0,23.9,0.1,33.6,0.2c1.1,0,1.6-0.8,1.6-1.9c2.5-22.9,3.4-39.6,3.5-41.1
	c0.2-1.6-1.9-2-1.9-2c-3.5-0.2-10.1-1.2-16-2.2c-6-1-6.2-7.8-6.2-7.8c-5-71.6,32.7-116.3,32.7-116.3s3.7-4.9,9-3.1
	c5.3,1.8,5.2,7.4,5.2,7.4c5.3,59.6,0.1,136.5-3.3,165c-0.2,1.2,0.4,2.1,1.5,2.3c0.1,0,0.2,0,0.3,0.1c16.2,0.5,23.7,0.9,25.7,0.7
	c3.7-0.4,6.7-3.2,7.3-6.8c8-55.5,6.8-111.1,6.8-111.1c0.2-2,1.7-3.5,3.7-3.7l21.8-2.3c2.9-0.4,5.3-1.6,6.5-4
	C264.8,134.6,264.7,131.4,263.2,128.9"/>
<g>
	<path class="st0" d="M315,111.5h32.7c1.7,0,3,1,3.7,2.5l33.1,84.5c0.7,1.7,3,1.7,3.7,0l33.6-84.5c0.7-1.5,2-2.5,3.7-2.5h32.1
		c2.2,0,3.8,1.7,3.8,3.8v118.5c0,2.2-1.7,3.8-3.8,3.8h-22.1c-2.2,0-3.8-1.7-3.8-3.8v-62.5c0-2.2-3-2.7-3.7-0.7l-26.4,64.7
		c-0.7,1.5-2,2.3-3.7,2.3h-22.9c-1.5,0-3-1-3.7-2.3l-26.4-64.7c-0.8-2-3.7-1.3-3.7,0.7v62.5c0,2.2-1.7,3.8-3.8,3.8H315
		c-2.2,0-3.8-1.7-3.8-3.8V115.4C310.9,113.2,312.8,111.5,315,111.5z"/>
	<path class="st0" d="M469.5,189.7c0-23.6,14.4-50.3,49.1-50.3c34.9,0,48.5,26.7,48.5,50.3c0,1.8-0.2,4.3-0.5,6.5
		c-0.3,1.8-1.8,3.3-3.8,3.3h-61.3c-1.3,0-2.3,1.5-1.8,2.7c3.7,8.5,12.7,12.4,21.6,12.4c7.2,0,14-2,18.5-5.3c1.5-1.2,3.7-1,5,0.3
		l12,11.7c1.5,1.5,1.7,4,0,5.5c-7.9,7.5-21.1,13-36.8,13C485.5,240,469.5,213.3,469.5,189.7z M500.7,179.7h35.6
		c1.3,0,2.2-1.3,1.8-2.5c-3-9.5-10.5-13.5-19.5-13.5c-9.2,0-16.7,4-19.7,13.5C498.6,178.4,499.4,179.7,500.7,179.7z"/>
	<path class="st0" d="M577.3,141.8h19.2c2.2,0,3.8,1.7,3.8,3.8v5.5h0.3c5-7,14.9-11.7,27.6-11.7c28.1,0,40.4,18.7,40.4,44.3v50.1
		c0,2.2-1.7,3.8-3.8,3.8h-20.9c-2.2,0-3.8-1.7-3.8-3.8v-45.6c0-12.2-4.8-22.4-18.7-22.4c-13.2,0-19.2,9.5-19.2,22.4v45.6
		c0,2.2-1.7,3.8-3.8,3.8h-20.9c-2.2,0-3.8-1.7-3.8-3.8v-88.1C573.4,143.6,575.1,141.8,577.3,141.8z"/>
	<path class="st0" d="M676.5,195.7v-50.1c0-2.2,1.7-3.8,3.8-3.8h20.9c2.2,0,3.8,1.7,3.8,3.8v45.9c0,12,4.5,21.9,17.5,21.9
		c12.9,0,18.9-9.4,18.9-21.9v-45.9c0-2.2,1.7-3.8,3.8-3.8h21.1c2.2,0,3.8,1.7,3.8,3.8v88.1c0,2.2-1.7,3.8-3.8,3.8h-19.2
		c-2.2,0-3.8-1.7-3.8-3.8v-5.5H743c-5,7-14.5,11.7-26.7,11.7C688.6,240,676.5,221.3,676.5,195.7z"/>
	<path class="st0" d="M786.5,100.8h20.9c2.2,0,3.8,1.7,3.8,3.8v129c0,2.2-1.7,3.8-3.8,3.8h-20.9c-2.2,0-3.8-1.7-3.8-3.8v-129
		C782.6,102.5,784.5,100.8,786.5,100.8z"/>
	<path class="st0" d="M818.4,189.7c0-23.6,16.5-50.3,51.5-50.3c34.9,0,51.5,26.7,51.5,50.3S904.8,240,869.8,240
		C834.9,240,818.4,213.3,818.4,189.7z M869.8,212.8c12,0,22.1-9.5,22.1-23.1c0-13.5-10-23.1-22.1-23.1s-22.1,9.5-22.1,23.1
		C847.6,203.3,857.8,212.8,869.8,212.8z"/>
	<path class="st0" d="M937.7,258.2l12.9-13c1.3-1.3,3.5-1.5,5-0.3c4.5,3.5,11.4,6,18.7,6c12.2,0,23.1-4,23.1-19.2v-9.5H997
		c-3.5,4.7-12.4,10.4-26.1,10.4c-28.9,0-44.9-21.6-44.9-45.6c0-26.9,18.7-47.3,44.9-47.3c13.4,0,22.6,4.7,27.7,11.2h0.3v-5
		c0-2.2,1.7-3.8,3.8-3.8h19.4c2.2,0,3.8,1.7,3.8,3.8v86.5c0,25.7-18.7,43.6-52,43.6c-15.5,0-28.9-5.2-36.4-12
		C936.2,262.4,936.2,259.9,937.7,258.2z M997.5,185.9c0-11-7.5-21.6-21.2-21.6c-13.5,0-21.2,10.5-21.2,21.6c0,11,7.5,21.6,21.2,21.6
		S997.5,196.9,997.5,185.9z"/>
</g>
</svg>
